<?xml version="1.0" encoding="UTF-8" standalone="no"?>
<!-- Created with Inkscape (http://www.inkscape.org/) -->

<svg
   width="210mm"
   height="297mm"
   viewBox="0 0 210 297"
   version="1.1"
   id="svg1"
   sodipodi:docname="Pimmel_Logo.svg"
   inkscape:version="1.3.2 (091e20e, 2023-11-25)"
   xmlns:inkscape="http://www.inkscape.org/namespaces/inkscape"
   xmlns:sodipodi="http://sodipodi.sourceforge.net/DTD/sodipodi-0.dtd"
   xmlns="http://www.w3.org/2000/svg"
   xmlns:svg="http://www.w3.org/2000/svg">
  <sodipodi:namedview
     id="namedview1"
     pagecolor="#ffffff"
     bordercolor="#000000"
     borderopacity="0.25"
     inkscape:showpageshadow="2"
     inkscape:pageopacity="0.0"
     inkscape:pagecheckerboard="0"
     inkscape:deskcolor="#d1d1d1"
     inkscape:document-units="mm"
     showguides="false"
     inkscape:zoom="0.60845258"
     inkscape:cx="386.22566"
     inkscape:cy="569.47741"
     inkscape:window-width="1500"
     inkscape:window-height="931"
     inkscape:window-x="0"
     inkscape:window-y="0"
     inkscape:window-maximized="1"
     inkscape:current-layer="svg1" />
  <defs
     id="defs1" />
  <g
     id="layer1"
     transform="matrix(1.9705137,0,0,2.1107294,-113.73837,-197.87057)">
    <path
       style="fill:#000000;stroke-width:0.264583"
       d="m 58.451152,229.71263 c 7.259817,-0.11413 14.52013,0.72835 21.681162,1.82942 1.920446,0.29528 3.784788,0.92798 5.715849,1.14317 3.016084,0.33608 6.117418,0.0489 9.145363,0.22761 4.659918,0.27495 9.508864,1.34525 14.176664,0.45693 2.37346,-0.45169 5.0411,-0.97445 7.31765,-1.82771 1.97138,-0.73889 3.90233,-1.73078 5.94516,-2.28804 3.25956,-0.88917 6.5571,-1.80852 9.8316,-2.74327 2.16967,-0.61936 4.58274,-1.83041 6.85903,-2.05703 2.77298,-0.27606 5.75279,0.0446 8.43533,0.45693 0.60273,0.0926 1.27406,-0.25187 1.82942,0 0.42849,0.19434 9.11553,1.56542 10.06601,0.8561 0.0375,-0.028 0,-3.81778 0,-4.52851 0,-6.67719 -0.80114,-16.52368 -3.40743,-22.78187 -0.24204,-0.58119 -1.99199,-2.41838 -2.26766,-2.72119 -1.49363,-1.64065 -3.84408,-3.27594 -5.94516,-4.11575 -1.30046,-0.5198 0.64104,0.87044 -1.14317,-0.22761 -5.51997,-3.39715 -11.5572,-9.01051 -18.52173,-5.03131 -0.48377,0.2764 -4.16741,3.71218 -4.8003,4.34507 -1.62248,1.62248 -4.25457,4.10257 -4.80199,6.40209 -1.11308,4.67558 -1.91914,9.6087 -2.28634,14.40428 -0.20503,2.67764 0.10287,5.35377 -0.22931,8.00389 -0.30722,2.4509 -0.22414,4.94955 -0.61321,7.29557 -0.0384,0.2315 -0.28745,2.43754 -0.42975,2.3237 -3.739,-2.9912 -3.76582,-10.10944 -4.32977,-14.6183 -0.32738,-2.61735 -0.99957,-5.17054 -1.37079,-7.77458 -0.0861,-0.6037 0.14999,-1.23834 0,-1.82941 -0.22719,-0.89531 -0.53859,0.0111 -0.88668,-0.89687 -0.98871,-2.57892 -1.59574,-4.65741 -3.42951,-6.85902 -1.87266,-2.24832 -4.68262,-2.98811 -6.859019,-4.802 -1.272741,-1.06075 -2.716252,-3.04707 -4.345066,-3.65712 -0.414645,-0.1553 -0.936501,0.20622 -1.32832,0 -0.126817,-0.0668 -0.786471,-0.85108 -0.915553,-0.91556 -1.873912,-0.93608 -8.129037,-0.68624 -10.060916,-0.68624 -0.671942,0 -6.413723,-0.45396 -7.545263,0 -0.200282,0.0804 -0.304618,0.30575 -0.456928,0.45863 -0.228748,0.15231 -0.431056,0.35493 -0.686242,0.45693 -0.63732,0.25474 -1.420569,0.26246 -2.057027,0.68624 -2.105935,1.40222 -5.316627,6.29203 -6.594035,8.42175 -0.49461,0.82462 -1.394474,1.48967 -1.829412,2.28634 -0.59641,1.09243 -1.276561,2.55447 -1.827712,3.65882 -0.211606,0.424 0.132374,1.13825 0,1.6001 -1.395704,4.86945 -0.247153,10.61627 0.456927,15.54745 0.202838,1.42063 0.570132,2.73958 0.913858,4.11575 0.232024,0.92897 -0.276611,2.11858 0.123997,2.96919"
       id="path1" />
    <path
       style="fill:#000000;stroke-width:0.264583"
       d="m 82.969007,185.4959 c -0.770837,-1.04355 2.290212,-2.64967 2.262558,-3.61466 -0.235225,-8.20849 -0.658789,-16.13648 -1.153361,-24.37007 -0.233648,-3.88975 -0.362,-7.78304 -0.915556,-11.66101 -1.428044,-10.00428 -5.029608,-20.02157 -5.029608,-30.18275 0,-4.90335 -0.54424,-9.60517 0.895173,-14.27859 0.114401,-0.37143 -0.01484,-0.84078 0.229312,-1.14317 0.179755,-0.22263 0.572566,-0.0988 0.827228,-0.22931 1.426236,-0.730745 2.735016,-1.711957 4.345066,-2.057027 2.190057,-0.469381 4.858518,0.0932 7.088333,0 6.150152,-0.25705 12.350668,-1.246679 18.521738,-0.686242 5.86923,0.533027 21.56656,4.362129 23.55134,10.974769 0.99424,3.31252 -2.10296,7.09141 -3.88814,9.14706 -3.42427,3.94307 -7.45244,7.49789 -12.11794,9.83161 -3.81121,1.90638 -8.16539,1.60009 -12.34726,1.60009 -0.94174,0 -2.44933,-0.19661 -3.42951,0 -4.036303,0.80966 -8.010628,0.68624 -12.119639,0.68624 -1.890106,0 -6.323883,-0.55965 -8.109204,0.1291"
       id="path5" />
    <path
       id="path6"
       style="fill:#000000;stroke-width:0.264583"
       d="m 101.36487,94.975081 c -3.135321,0.01705 -6.056978,0.747424 -10.47171,2.797246 -2.553841,1.185781 -5.533995,2.941313 -7.3179,5.260663 -1.753426,2.27972 -2.037867,5.33437 -3.429248,7.77317 -0.106937,0.18744 -0.376725,0.25799 -0.456819,0.45837 -0.113062,0.28286 0.204239,0.68814 0,0.91415 -0.904008,1.00034 -1.728216,1.74503 -2.099614,3.5109 -1.52753,7.26286 1.796123,16.4548 9.832992,18.06298 5.282921,1.05711 17.166569,-2.69082 22.865269,-4.11551 5.71395,-1.42849 11.26022,-3.09805 16.71733,-5.24103 0.0228,-0.0225 0.0461,-0.0465 0.0667,-0.0667 0.0202,-1.40072 0.0527,-2.80286 0.0527,-4.20129 0,-3.08229 0.0586,-6.07997 0.22944,-9.1457 0.0619,-1.11049 -0.41136,-5.12178 0,-5.89214 0.19096,-0.35762 3.21024,-0.45682 3.91191,-0.45682 h -0.27854 c -0.6605,0 -0.84162,0.032 -1.45262,-0.45734 -1.1579,-0.92734 -2.34682,-1.58156 -3.65869,-2.28772 -1.98244,-1.06708 -3.89116,-2.516915 -5.94486,-3.42976 -3.26104,-1.449496 -6.57381,-1.951925 -10.05933,-2.514059 -3.50048,-0.564536 -6.06838,-0.982711 -8.50698,-0.96945 z m 30.44776,66.891529 c -0.0359,0.002 -0.0452,0.002 -0.0822,0.004 -0.003,0.41464 6.1e-4,0.82938 -0.0114,1.24385 -0.003,0.0649 -0.008,0.12988 -0.0114,0.19482 0.0411,0.0506 0.0833,0.1004 0.12454,0.1509 z m 0.0207,19.4045 c 0.0718,0.31883 0.16745,0.76397 0.23409,1.0604 l -0.0108,-0.88005 c -0.074,-0.0521 -0.14878,-0.12183 -0.22324,-0.18035 z" />
    <path
       style="fill:#000000;stroke-width:0.264583"
       d="m 157.25298,221.59154 60.5965,-4.41301"
       id="path7" />
  </g>
</svg>
